<svg xmlns="http://www.w3.org/2000/svg" width="0" height="0">
	<svg id="icon-arrow-left" viewBox="0 0 1024 1024">
		<path fill="var(--color-1)" d="M46.236,491.33L833.312,53.934c18.372-10.076,33.189-1.185,33.189,19.558v872.422c0,20.744-14.817,29.634-33.189,19.558 L46.236,528.076C27.863,518,27.863,501.406,46.236,491.33L46.236,491.33z"/>
	</svg>

	<svg id="icon-arrow-right" viewBox="0 0 1024 1024">
		<path fill="var(--color-1)" d="M973.724,528.076L186.648,965.472c-18.373,10.076-33.19,1.186-33.19-19.558V73.492c0-20.744,14.817-29.634,33.19-19.558 L973.724,491.33C992.097,501.406,992.097,518,973.724,528.076z"/>
	</svg>

	<svg id="icon-sidebar" viewBox="0 0 500 500">
		<path fill="var(--color-1)" d="M480,40H20C8.954,40,0,48.954,0,60v380c0,11.046,8.954,20,20,20h460c11.046,0,20-8.954,20-20V60 C500,48.954,491.046,40,480,40z M40,80h120v340H40V80z M460,420H200V80h260V420z"/>
		<rect fill="var(--color-1)" x="70" y="120" width="50" height="50"/>
		<rect fill="var(--color-1)" x="70" y="210" width="50" height="50"/>
	</svg>

	<svg id="icon-night-toggle" viewBox="0 0 500 500">
		<path fill="var(--color-1)" stroke="var(--color-1)" stroke-width="5" stroke-linejoin="round" d="M351,339.5 c-84.775,0-153.5-68.725-153.5-153.5c0-53.257,27.126-100.174,68.312-127.702c-2.649-0.109-5.308-0.178-7.983-0.178 c-105.858,0-191.672,85.814-191.672,191.672c0,105.857,85.814,191.672,191.672,191.672c84.251,0,155.803-54.359,181.503-129.918 C414.351,329.154,383.885,339.5,351,339.5z"/>
		<g stroke="var(--color-2)" stroke-width="50" stroke-linecap="round">
			<circle fill="none" cx="252.922" cy="249.999" r="129.694"/>
			<line fill="none" x1="252.922" y1="21.243" x2="252.922" y2="74.502"/>
			<line fill="none" x1="252.922" y1="425.497" x2="252.922" y2="478.757"/>
			<line fill="none" x1="478.757" y1="250.222" x2="425.498" y2="250.222"/>
			<line fill="none" x1="74.503" y1="250.222" x2="21.243" y2="250.222"/>
			<line fill="none" x1="415.789" y1="89.198" x2="378.128" y2="126.858"/>
			<line fill="none" x1="129.938" y1="375.05" x2="92.278" y2="412.71"/>
			<line fill="none" x1="413.565" y1="410.8" x2="375.906" y2="373.14"/>
			<line fill="none" x1="127.715" y1="124.95" x2="90.055" y2="87.289"/>
		</g>
	</svg>
</svg>