<svg xmlns="http://www.w3.org/2000/svg" width="0" height="0">
	<svg id="icon-arrow-left" viewBox="0 0 1024 1024">
		<path fill="#333" d="M46.236,491.33L833.312,53.934c18.372-10.076,33.189-1.185,33.189,19.558v872.422c0,20.744-14.817,29.634-33.189,19.558 L46.236,528.076C27.863,518,27.863,501.406,46.236,491.33L46.236,491.33z"/>
	</svg>

	<svg id="icon-arrow-right" viewBox="0 0 1024 1024">
		<path fill="#333" d="M973.724,528.076L186.648,965.472c-18.373,10.076-33.19,1.186-33.19-19.558V73.492c0-20.744,14.817-29.634,33.19-19.558 L973.724,491.33C992.097,501.406,992.097,518,973.724,528.076z"/>
	</svg>

	<svg id="icon-sidebar" viewBox="0 0 500 500">
		<path fill="#333" d="M480,40H20C8.954,40,0,48.954,0,60v380c0,11.046,8.954,20,20,20h460c11.046,0,20-8.954,20-20V60 C500,48.954,491.046,40,480,40z M40,80h120v340H40V80z M460,420H200V80h260V420z"/>
		<rect fill="#333" x="70" y="120" width="50" height="50"/>
		<rect fill="#333" x="70" y="210" width="50" height="50"/>
	</svg>
</svg>