<svg xmlns="http://www.w3.org/2000/svg" width="0" height="0">

	<svg id="icon-arrow-left" viewBox="0 0 13 13">
		<style type="text/css">
			.st0{fill:#333;}
		</style>
		<polygon class="st0" points="9.2,1.6 8.5,0.8 3.5,5.8 3.5,5.8 2.8,6.5 3.5,7.2 8.5,12.2 9.2,11.4 4.2,6.5 "/>
	</svg>

	<svg id="icon-arrow-right" viewBox="0 0 13 13">
		<style type="text/css">
			.st0{fill:#333;}
		</style>
		<polygon class="st0" points="2.8,11.4 3.5,12.2 8.5,7.2 8.5,7.2 9.2,6.5 8.5,5.8 3.5,0.8 2.8,1.6 7.8,6.5 "/>
	</svg>

	<svg id="icon-sidebar" viewBox="0 0 13 13">
		<style type="text/css">
			.st0{fill:#333;}
		</style>
		<path class="st0" d="M11,2H6H5H2H1v1v7v1h1h3h1h5h1v-1V3V2H11z M2,10V3h3v7H2z M11,10H6V3h5V10z"/>
		<rect x="3" y="4" class="st0" width="1" height="1"/>
		<rect x="3" y="6" class="st0" width="1" height="1"/>
	</svg>

	<svg id="icon-folder-open" viewBox="0 0 17 17">
		<path fill="#333" d="M16,9.5c0,0.2-0.1,0.4-0.2,0.5L13.1,13c-0.5,0.5-1.4,1-2.1,1H2.3c-0.3,0-0.7-0.1-0.7-0.4c0-0.2,0.1-0.4,0.2-0.5L4.5,10
			C5,9.4,5.9,9,6.6,9h8.7C15.6,9,16,9.1,16,9.5z M13.2,6.4V8H6.6c-1,0-2.2,0.6-2.9,1.3L1,12.4c0-0.1,0-0.1,0-0.2l0-7.7
			C1,3.5,1.3,3,2.3,3h3.5c1,0,1.4,0.3,1.4,1.3V5h4.7C12.8,5,13.2,5.4,13.2,6.4z"/>
	</svg>

	<svg id="icon-clipboard" viewBox="0 0 17 17">
		<path fill="#333" d="M14.6,2.9h-4.2c0-1-0.8-1.9-1.9-1.9S6.6,1.8,6.6,2.9H2.4c-0.3,0-0.5,0.2-0.5,0.5v12.2c0,0.3,0.2,0.5,0.5,0.5h12.2
			c0.3,0,0.5-0.2,0.5-0.5V3.3C15.1,3.1,14.9,2.9,14.6,2.9z M8.5,1.9c0.5,0,0.9,0.4,0.9,0.9S9,3.8,8.5,3.8S7.6,3.4,7.6,2.9
			S8,1.9,8.5,1.9z M14,15H3V4h1.7v1.5C4.7,5.8,5,6,5.2,6h6.6c0.3,0,0.5-0.2,0.5-0.5V4H14V15z"/>
		<path fill="#333" d="M7.6,13.6l-3-3.5l0.9-0.9l2.2,1.7l4-3.6l0.9,0.9L7.6,13.6z"/>
	</svg>

	<svg id="icon-file-manual" viewBox="0 0 34 34">
		<path fill="#489bf7" d="M32.5,8.8c0.5,0.7,0.6,1.6,0.3,2.5L27.6,29c-0.5,1.7-2.2,2.9-3.8,2.9H6c-2,0-4.1-1.6-4.8-3.6c-0.3-0.9-0.3-1.7,0-2.5
			c0-0.4,0.1-0.8,0.1-1.2c0-0.3-0.2-0.6-0.1-0.8C1.3,23.4,1.7,23,2,22.5c0.6-1,1.2-2.6,1.4-3.6c0.1-0.4-0.1-0.8,0-1.1
			c0.1-0.4,0.5-0.6,0.7-1c0.5-0.9,1.2-2.6,1.3-3.5c0-0.4-0.2-0.9,0-1.2c0.1-0.4,0.6-0.6,0.8-1c0.5-0.6,1.2-2.5,1.3-3.5
			c0-0.3-0.2-0.7-0.1-1C7.5,6.2,8,5.8,8.3,5.3c0.8-1.2,1-3.9,3.4-3.2l0,0.1C12,2.1,12.3,2,12.7,2h14.6c0.9,0,1.7,0.4,2.2,1.1
			c0.5,0.7,0.6,1.6,0.3,2.5l-5.3,17.7c-0.9,3-1.4,3.7-3.8,3.7H4c-0.2,0-0.6,0.1-0.7,0.3c-0.2,0.2-0.2,0.4,0,0.8
			C3.6,29.2,5,29.5,6,29.5h17.7c0.7,0,1.5-0.4,1.7-1.1l5.8-19.2c0.1-0.4,0.1-0.8,0.1-1.1C31.8,8.2,32.2,8.5,32.5,8.8z M12.1,8.9
			c-0.1,0.4,0.1,0.6,0.4,0.6h11.7c0.3,0,0.7-0.3,0.8-0.6l0.4-1.2C25.5,7.3,25.3,7,25,7H13.3c-0.3,0-0.7,0.3-0.8,0.6L12.1,8.9z
			 M10.5,13.9c-0.1,0.4,0.1,0.6,0.4,0.6h11.7c0.3,0,0.7-0.3,0.8-0.6l0.4-1.2c0.1-0.4-0.1-0.6-0.4-0.6H11.7c-0.3,0-0.7,0.3-0.8,0.6
			L10.5,13.9z"/>
	</svg>
	
</svg>